<svg width="45" height="45" viewBox="0 0 45 45" fill="none" xmlns="http://www.w3.org/2000/svg">
<rect width="45" height="45" rx="10" fill="#121212"/>
<path d="M22.5 33C19.8167 33 17.4785 32.1104 15.4854 30.3312C13.4924 28.5521 12.35 26.3306 12.0583 23.6667H14.45C14.7222 25.6889 15.6215 27.3611 17.1479 28.6833C18.6743 30.0056 20.4583 30.6667 22.5 30.6667C24.775 30.6667 26.7049 29.8743 28.2896 28.2896C29.8743 26.7049 30.6667 24.775 30.6667 22.5C30.6667 20.225 29.8743 18.2951 28.2896 16.7104C26.7049 15.1257 24.775 14.3333 22.5 14.3333C21.1583 14.3333 19.9042 14.6444 18.7375 15.2667C17.5708 15.8889 16.5889 16.7444 15.7917 17.8333H19V20.1667H12V13.1667H14.3333V15.9083C15.325 14.6639 16.5354 13.7014 17.9646 13.0208C19.3938 12.3403 20.9056 12 22.5 12C23.9583 12 25.3243 12.2771 26.5979 12.8313C27.8715 13.3854 28.9799 14.134 29.9229 15.0771C30.866 16.0201 31.6146 17.1285 32.1688 18.4021C32.7229 19.6757 33 21.0417 33 22.5C33 23.9583 32.7229 25.3243 32.1688 26.5979C31.6146 27.8715 30.866 28.9799 29.9229 29.9229C28.9799 30.866 27.8715 31.6146 26.5979 32.1688C25.3243 32.7229 23.9583 33 22.5 33ZM25.7667 27.4L21.3333 22.9667V16.6667H23.6667V22.0333L27.4 25.7667L25.7667 27.4Z" fill="white"/>
</svg>
