<svg width="45" height="46" viewBox="0 0 45 46" fill="none" xmlns="http://www.w3.org/2000/svg">
<rect y="0.5" width="45" height="45" rx="10" fill="#121212"/>
<path d="M15 20.5C13.625 20.5 12.5 21.625 12.5 23C12.5 24.375 13.625 25.5 15 25.5C16.375 25.5 17.5 24.375 17.5 23C17.5 21.625 16.375 20.5 15 20.5ZM30 20.5C28.625 20.5 27.5 21.625 27.5 23C27.5 24.375 28.625 25.5 30 25.5C31.375 25.5 32.5 24.375 32.5 23C32.5 21.625 31.375 20.5 30 20.5ZM22.5 20.5C21.125 20.5 20 21.625 20 23C20 24.375 21.125 25.5 22.5 25.5C23.875 25.5 25 24.375 25 23C25 21.625 23.875 20.5 22.5 20.5Z" fill="white"/>
</svg>
