<svg width="45" height="46" viewBox="0 0 45 46" fill="none" xmlns="http://www.w3.org/2000/svg">
<rect y="0.5" width="45" height="45" rx="10" fill="#121212"/>
<path d="M30.1471 24.6947H31.9118C32.0678 24.6947 32.2174 24.635 32.3277 24.5288C32.438 24.4225 32.5 24.2784 32.5 24.1282C32.5 23.9779 32.438 23.8338 32.3277 23.7275C32.2174 23.6213 32.0678 23.5616 31.9118 23.5616H30.1471V21.6731H31.9118C32.0678 21.6731 32.2174 21.6134 32.3277 21.5071C32.438 21.4009 32.5 21.2568 32.5 21.1065C32.5 20.9563 32.438 20.8122 32.3277 20.7059C32.2174 20.5997 32.0678 20.54 31.9118 20.54H30.1225C29.9838 18.7992 29.2059 17.163 27.9284 15.9244L29.9745 13.9528C30.0784 13.8454 30.135 13.7033 30.1323 13.5566C30.1296 13.4098 30.0679 13.2697 29.9601 13.1659C29.8523 13.0621 29.7069 13.0027 29.5545 13.0001C29.4021 12.9975 29.2546 13.052 29.1431 13.1521L27.0363 15.1813C25.7234 14.246 24.1335 13.7412 22.5005 13.7412C20.8675 13.7412 19.2776 14.246 17.9647 15.1813L15.8569 13.1521C15.7454 13.052 15.5979 12.9975 15.4455 13.0001C15.2931 13.0027 15.1477 13.0621 15.0399 13.1659C14.9321 13.2697 14.8704 13.4098 14.8677 13.5566C14.865 13.7033 14.9216 13.8454 15.0255 13.9528L17.0725 15.9244C15.7943 17.1626 15.0161 18.799 14.8775 20.54H13.0882C12.9322 20.54 12.7826 20.5997 12.6723 20.7059C12.562 20.8122 12.5 20.9563 12.5 21.1065C12.5 21.2568 12.562 21.4009 12.6723 21.5071C12.7826 21.6134 12.9322 21.6731 13.0882 21.6731H14.8529V23.5616H13.0882C12.9322 23.5616 12.7826 23.6213 12.6723 23.7275C12.562 23.8338 12.5 23.9779 12.5 24.1282C12.5 24.2784 12.562 24.4225 12.6723 24.5288C12.7826 24.635 12.9322 24.6947 13.0882 24.6947H14.8529V25.639C14.8536 25.9547 14.8752 26.2701 14.9176 26.5832H13.0882C12.9322 26.5832 12.7826 26.6429 12.6723 26.7492C12.562 26.8554 12.5 26.9995 12.5 27.1498C12.5 27.3001 12.562 27.4442 12.6723 27.5504C12.7826 27.6567 12.9322 27.7164 13.0882 27.7164H15.1647C15.6313 29.2417 16.598 30.5806 17.9201 31.533C19.2423 32.4854 20.849 33 22.5 33C24.151 33 25.7577 32.4854 27.0799 31.533C28.402 30.5806 29.3687 29.2417 29.8353 27.7164H31.9118C32.0678 27.7164 32.2174 27.6567 32.3277 27.5504C32.438 27.4442 32.5 27.3001 32.5 27.1498C32.5 26.9995 32.438 26.8554 32.3277 26.7492C32.2174 26.6429 32.0678 26.5832 31.9118 26.5832H30.0824C30.1248 26.2701 30.1464 25.9547 30.1471 25.639V24.6947ZM22.5 14.8744C24.1135 14.8763 25.6683 15.4581 26.8598 16.506C28.0513 17.5539 28.7939 18.9925 28.9422 20.54H16.0578C16.2061 18.9925 16.9487 17.5539 18.1402 16.506C19.3317 15.4581 20.8865 14.8763 22.5 14.8744ZM23.0882 31.8437V24.1282C23.0882 23.9779 23.0263 23.8338 22.9159 23.7275C22.8056 23.6213 22.656 23.5616 22.5 23.5616C22.344 23.5616 22.1944 23.6213 22.0841 23.7275C21.9737 23.8338 21.9118 23.9779 21.9118 24.1282V31.8437C20.305 31.7009 18.8115 30.9857 17.7235 29.8381C16.6355 28.6905 16.0314 27.1931 16.0294 25.639V21.6731H28.9706V25.639C28.9686 27.1931 28.3645 28.6905 27.2765 29.8381C26.1885 30.9857 24.695 31.7009 23.0882 31.8437Z" fill="white"/>
</svg>
