<svg width="45" height="46" viewBox="0 0 45 46" fill="none" xmlns="http://www.w3.org/2000/svg">
<rect y="0.5" width="45" height="45" rx="10" fill="#121212"/>
<path d="M24.7655 14.2697C24.7862 14.1919 24.8221 14.119 24.871 14.0551C24.9199 13.9912 24.9809 13.9376 25.0506 13.8974C25.1202 13.8571 25.1972 13.8309 25.2769 13.8204C25.3567 13.8099 25.4378 13.8152 25.5155 13.836C26.9943 14.2217 28.3435 14.9948 29.4241 16.0754C30.5048 17.1561 31.2778 18.5054 31.6635 19.9842C31.6843 20.0619 31.6896 20.143 31.6791 20.2227C31.6686 20.3025 31.6424 20.3794 31.6021 20.4491C31.5619 20.5187 31.5083 20.5798 31.4444 20.6287C31.3805 20.6776 31.3076 20.7135 31.2298 20.7342C31.1782 20.7479 31.1251 20.7548 31.0717 20.7546C30.9368 20.7547 30.8056 20.7102 30.6986 20.6281C30.5916 20.546 30.5147 20.4308 30.4798 20.3005C30.1487 19.0303 29.4848 17.8713 28.5565 16.943C27.6283 16.0148 26.4694 15.3509 25.1992 15.0197C25.1214 14.999 25.0485 14.9631 24.9846 14.9142C24.9207 14.8653 24.8671 14.8042 24.8268 14.7346C24.7866 14.6649 24.7604 14.588 24.7499 14.5082C24.7394 14.4285 24.7447 14.3474 24.7655 14.2697ZM24.3828 18.2851C25.8675 18.6811 26.8186 19.6321 27.2145 21.1169C27.2493 21.2472 27.3262 21.3624 27.4333 21.4445C27.5403 21.5266 27.6714 21.5711 27.8063 21.571C27.8597 21.5712 27.9129 21.5643 27.9645 21.5506C28.0422 21.5298 28.1151 21.494 28.179 21.4451C28.2429 21.3961 28.2965 21.3351 28.3368 21.2654C28.3771 21.1958 28.4032 21.1189 28.4138 21.0391C28.4243 20.9593 28.419 20.8783 28.3982 20.8005C27.888 18.8913 26.6084 17.6116 24.6991 17.1014C24.6214 17.0806 24.5404 17.0754 24.4606 17.0859C24.3809 17.0965 24.304 17.1226 24.2343 17.1629C24.0937 17.2443 23.9911 17.3781 23.9491 17.5351C23.9072 17.6921 23.9293 17.8593 24.0106 17.9999C24.092 18.1406 24.2258 18.2432 24.3828 18.2851ZM32.489 28.1835C32.3142 29.5174 31.6596 30.7421 30.6476 31.6285C29.6355 32.5149 28.3353 33.0025 26.99 33C19.0001 33 12.5 26.4997 12.5 18.5096C12.4974 17.1647 12.9845 15.8649 13.8703 14.8529C14.7561 13.8409 15.98 13.186 17.3133 13.0104C17.6203 12.9731 17.931 13.0364 18.1989 13.1908C18.4668 13.3452 18.6774 13.5823 18.7991 13.8666L20.9522 18.6729C21.0472 18.8905 21.0866 19.1283 21.0666 19.365C21.0467 19.6016 20.968 19.8295 20.8379 20.0281C20.8247 20.0483 20.8104 20.0677 20.795 20.0862L18.645 22.6435C18.6319 22.67 18.6251 22.6991 18.6251 22.7287C18.6251 22.7582 18.6319 22.7874 18.645 22.8139C19.4266 24.4139 21.1042 26.0793 22.7267 26.86C22.7538 26.8723 22.7834 26.8782 22.8131 26.8771C22.8429 26.8761 22.872 26.8681 22.8981 26.8538L25.4175 24.7109C25.4355 24.6952 25.4546 24.6809 25.4747 24.668C25.6724 24.5362 25.8998 24.4558 26.1364 24.4341C26.3731 24.4123 26.6114 24.45 26.8298 24.5435L31.6503 26.7038C31.9307 26.8281 32.1637 27.0394 32.3148 27.3065C32.4659 27.5735 32.527 27.8821 32.489 28.1865V28.1835ZM31.2758 28.0325C31.2792 27.9898 31.2691 27.9471 31.2469 27.9105C31.2248 27.8739 31.1917 27.8451 31.1523 27.8284L26.3308 25.6681C26.3045 25.6579 26.2762 25.6536 26.248 25.6553C26.2199 25.6571 26.1924 25.6649 26.1675 25.6783L23.6491 27.8212C23.6308 27.8365 23.6114 27.8508 23.592 27.8641C23.3866 28.0011 23.1491 28.0825 22.9029 28.1004C22.6566 28.1182 22.4099 28.072 22.1869 27.9661C20.3134 27.061 18.446 25.2109 17.5409 23.3547C17.4344 23.1329 17.387 22.8874 17.4033 22.642C17.4196 22.3965 17.499 22.1594 17.6337 21.9536C17.6469 21.9332 17.6616 21.9137 17.6776 21.8955L19.8266 19.3382C19.8389 19.3115 19.8453 19.2824 19.8453 19.253C19.8453 19.2236 19.8389 19.1945 19.8266 19.1678L17.6776 14.3574C17.6634 14.3188 17.6379 14.2854 17.6044 14.2615C17.5709 14.2377 17.531 14.2245 17.4899 14.2237H17.4664C16.4286 14.3618 15.4765 14.8729 14.7879 15.6616C14.0993 16.4503 13.7213 17.4626 13.7245 18.5096C13.7245 25.8242 19.6756 31.7755 26.99 31.7755C28.0371 31.7786 29.0496 31.4005 29.8383 30.7117C30.627 30.0229 31.1379 29.0705 31.2758 28.0325Z" fill="white"/>
</svg>
